<?xml version="1.0" encoding="UTF-8" standalone="no"?>
<!DOCTYPE svg PUBLIC "-//W3C//DTD SVG 1.1//EN" "http://www.w3.org/Graphics/SVG/1.1/DTD/svg11.dtd">
<svg width="100%" height="100%" viewBox="0 0 977 490" version="1.1" xmlns="http://www.w3.org/2000/svg" xmlns:xlink="http://www.w3.org/1999/xlink" xml:space="preserve" xmlns:serif="http://www.serif.com/" style="fill-rule:evenodd;clip-rule:evenodd;stroke-linejoin:round;stroke-miterlimit:2;">
    <g transform="matrix(1,0,0,1,-51.87428,-295.366589)">
        <g transform="matrix(1.149695,0,0,1.149695,-214.851277,-203.631357)">
            <path d="M289.167,857.331C219.168,838.004 233.133,723.418 233.133,646.807C233.133,570.196 219.168,455.61 289.167,436.283C359.739,416.798 491.515,529.895 656.566,529.895C821.618,529.895 953.393,416.798 1023.966,436.283C1093.964,455.61 1080,570.196 1080,646.807C1080,723.418 1093.964,838.004 1023.966,857.331C953.393,876.817 821.618,763.719 656.566,763.719C491.515,763.719 359.739,876.817 289.167,857.331Z" style="fill:rgb(144,169,85);"/>
        </g>
    </g>
</svg>
